# xmcd
#
# Track frame offsets:
#	183
#	14920
#	33350
#	47468
#	60173
#	72283
#	96270
#	108538
#	126143
#	141025
#	156538
#	175430
#	196388
#	211125
#	227983
#
# Disc length: 3293
#
# Revision: 3
# Processed by: cddbd v1.5.1PL0 Copyright (c) Steve Scherf et al.
# Submitted via: libkcddb 0.10
# Normalized: r2:TDELIM( - )
#
DISCID=d80cdb0f
DTITLE=Various Artist - Cookin with the Blues
DYEAR=1900
DGENRE=
TTITLE0=Bill Boy Arnold and Tony McPhee - Don't stay out all night
TTITLE1=Byther Smith - Come on in this house
TTITLE2=Buddy Guy - Sit and cry
TTITLE3=The Paul Delay Band - Mine all mine
TTITLE4=Ike Turner - Prancin'
TTITLE5=Jimmy Johnson - When my first wife quit me
TTITLE6=John Lee Hooker - House Rent Boogie
TTITLE7=Carey Bell and Willie Williams - Showing of my car
TTITLE8=Tommy Tucker - Drunk
TTITLE9=Bo Diddley - Road Runner
TTITLE10=Clarence Edwards - Still a fool
TTITLE11=Brian Knight with Lawrence SCatt and Mickey Moody - Take this hammert
TTITLE12=Big Walter 'Shaky' Horton - Easy
TTITLE13=Peter Green and Mick Green - Chinese white boy
TTITLE14=Isaac Scott - Feast goin' on
EXTD=
EXTT0=
EXTT1=
EXTT2=
EXTT3=
EXTT4=
EXTT5=
EXTT6=
EXTT7=
EXTT8=
EXTT9=
EXTT10=
EXTT11=
EXTT12=
EXTT13=
EXTT14=
PLAYORDER=
